<svg xmlns="http://www.w3.org/2000/svg" aria-hidden="true" style="position:absolute;width:0;height:0;overflow:hidden"><defs><symbol id="icon-arrow" viewBox="0 0 144 32"><path d="M141.414 17.414a2 2 0 0 0 0-2.828L128.686 1.858a2 2 0 1 0-2.828 2.828L137.172 16l-11.314 11.314a2 2 0 1 0 2.828 2.828l12.728-12.728zM0 18h140v-4H0v4z"/></symbol><symbol id="icon-chat" viewBox="0 0 46 32"><path d="M35.37 13.998C35.37 5.936 26.872.651 18.387.651 9.869.651 1.404 5.96 1.404 13.998c0 3.041 1.332 6.014 3.75 8.373.093.09.128.227.092.358-.76 2.783-2.559 5.296-3.297 6.248a.952.952 0 0 0-.098 1.022.952.952 0 0 0 .856.527h.025c3.612-.09 7.799-1.11 10.387-3.654a.37.37 0 0 1 .347-.094c1.59.377 3.246.568 4.92.568 8.516 0 16.983-5.307 16.983-13.347zm-21.605 11.52a1.653 1.653 0 0 0-1.552.43c-2.588 2.545-6.814 3.123-8.815 3.252.914-1.262 2.4-3.578 3.096-6.131a1.658 1.658 0 0 0-.437-1.624c-2.198-2.143-3.36-4.719-3.36-7.447 0-6.646 7.038-12.053 15.69-12.053s15.69 5.407 15.69 12.053c0 6.646-7.038 12.053-15.69 12.053-1.574 0-3.129-.18-4.622-.533z"/><path d="M39.529 24.743c3.77-1.905 6.021-5.153 6.021-8.687 0-4.995-4.515-9.263-10.736-10.149a.646.646 0 1 0-.182 1.28c5.577.794 9.625 4.524 9.625 8.868 0 3.036-1.986 5.852-5.311 7.533a1.599 1.599 0 0 0-.843 1.757c.315 1.482.987 2.854 1.524 3.784-3.819-.636-5.266-2.468-5.724-3.261a1.594 1.594 0 0 0-1.381-.793h-.052c-.717 0-1.435-.05-2.134-.148a.646.646 0 1 0-.179 1.28c.758.107 1.537.161 2.314.161h.053a.3.3 0 0 1 .26.146c1.751 3.035 5.778 3.81 7.427 4.003.364.042.711-.124.906-.436s.191-.695-.007-1.004c-.497-.774-1.384-2.323-1.741-4.002a.304.304 0 0 1 .161-.334zM8.324 11.685c-1.236 0-2.241 1.005-2.241 2.241s1.005 2.241 2.241 2.241c1.236 0 2.241-1.005 2.241-2.241s-1.005-2.241-2.241-2.241zm0 3.189a.949.949 0 1 1 .001-1.897.949.949 0 0 1-.001 1.897zM14.718 11.685c-1.236 0-2.241 1.005-2.241 2.241s1.005 2.241 2.241 2.241c1.236 0 2.241-1.005 2.241-2.241s-1.005-2.241-2.241-2.241zm0 3.189a.949.949 0 1 1 .001-1.897.949.949 0 0 1-.001 1.897zM21.111 11.685c-1.236 0-2.241 1.005-2.241 2.241s1.005 2.241 2.241 2.241c1.236 0 2.241-1.005 2.241-2.241s-1.005-2.241-2.241-2.241zm0 3.189a.949.949 0 1 1 .001-1.897.949.949 0 0 1-.001 1.897zM27.505 11.685c-1.236 0-2.241 1.005-2.241 2.241s1.006 2.241 2.241 2.241c1.236 0 2.241-1.005 2.241-2.241s-1.005-2.241-2.241-2.241zm0 3.189a.949.949 0 1 1 .001-1.897.949.949 0 0 1-.001 1.897z"/></symbol><symbol id="icon-chef-hat" viewBox="0 0 35 32"><path d="M25.172 8.292a.471.471 0 0 1-.467-.467 6.844 6.844 0 0 0-6.841-6.705 6.84 6.84 0 0 0-6.841 6.705.471.471 0 0 1-.467.467.471.471 0 0 1-.467-.467 7.778 7.778 0 0 1 15.552 0 .47.47 0 0 1-.467.467z"/><path d="M26.536 18.868a.466.466 0 0 1-.47-.465.466.466 0 0 1 .465-.47 6.791 6.791 0 0 0 6.754-6.706 6.789 6.789 0 0 0-6.837-6.721 6.953 6.953 0 0 0-2.036.302c-.118.034-.245.021-.352-.038s-.189-.157-.225-.274a.47.47 0 0 1 .303-.582 7.896 7.896 0 0 1 2.31-.343 7.725 7.725 0 0 1 7.772 7.655 7.734 7.734 0 0 1-7.677 7.641h-.006zM9.188 18.868h-.006a7.729 7.729 0 0 1-7.677-7.641 7.722 7.722 0 0 1 7.772-7.655 7.896 7.896 0 0 1 2.31.343.463.463 0 0 1 .281.227.469.469 0 0 1-.555.667 6.953 6.953 0 0 0-2.036-.302 6.789 6.789 0 0 0-6.837 6.721 6.793 6.793 0 0 0 6.754 6.706.463.463 0 0 1 .33.139.478.478 0 0 1 .134.331.463.463 0 0 1-.139.33.467.467 0 0 1-.331.135z"/><path d="M26.536 30.495H9.188a.47.47 0 0 1-.467-.467V18.402a.471.471 0 0 1 .467-.467.47.47 0 0 1 .467.467V29.56h16.413V18.402a.47.47 0 0 1 .797-.33.465.465 0 0 1 .137.33v11.626a.47.47 0 0 1-.467.467z"/><path d="M29.788 25.966H12.44a.47.47 0 0 1-.33-.797.471.471 0 0 1 .33-.137h17.348a.47.47 0 0 1 .33.797.465.465 0 0 1-.33.137z"/></symbol><symbol id="icon-clock" viewBox="0 0 34 32"><path d="M16.631.249C7.931.249.853 7.327.853 16.027s7.078 15.778 15.778 15.778 15.778-7.078 15.778-15.778S25.331.249 16.631.249zm0 30.503c-8.12 0-14.726-6.606-14.726-14.726S8.511 1.3 16.631 1.3c8.12 0 14.726 6.606 14.726 14.726s-6.606 14.726-14.726 14.726z"/><path d="M17.157 13.934V8.6a.526.526 0 0 0-1.052 0v5.334a2.098 2.098 0 0 0-1.503 1.503h-3.756a.526.526 0 0 0 0 1.052h3.756a2.102 2.102 0 0 0 2.029 1.578c1.16 0 2.104-.944 2.104-2.104a2.1 2.1 0 0 0-1.578-2.029zm-.526 3.081c-.58 0-1.052-.472-1.052-1.052s.472-1.052 1.052-1.052c.58 0 1.052.472 1.052 1.052s-.472 1.052-1.052 1.052zM16.631 5.445c.29 0 .526-.235.526-.526v-.526a.526.526 0 0 0-1.052 0v.526c0 .291.236.526.526.526zM16.631 26.482a.526.526 0 0 0-.526.526v.526a.526.526 0 0 0 1.052 0v-.526a.526.526 0 0 0-.526-.526zM28.201 15.437h-.526a.526.526 0 0 0 0 1.052h.526a.526.526 0 0 0 0-1.052zM5.587 15.437h-.526a.526.526 0 0 0 0 1.052h.526a.526.526 0 0 0 0-1.052zM24.441 7.41l-.372.372a.525.525 0 1 0 .744.744l.372-.372a.525.525 0 1 0-.744-.744zM8.45 23.4l-.372.372a.525.525 0 1 0 .744.744l.372-.372a.525.525 0 1 0-.744-.744zM24.813 23.401a.525.525 0 1 0-.744.744l.372.372a.523.523 0 0 0 .744 0 .525.525 0 0 0 0-.744l-.372-.372zM8.822 7.409a.525.525 0 1 0-.744.744l.372.372a.523.523 0 0 0 .744 0 .525.525 0 0 0 0-.744l-.372-.372z"/></symbol><symbol id="icon-close" viewBox="0 0 32 32"><path d="M30.355 32a1.646 1.646 0 0 0 1.163-2.811L2.811.482A1.646 1.646 0 1 0 .483 2.811L29.19 31.517a1.65 1.65 0 0 0 1.165.483z"/><path d="M1.645 32c.422 0 .843-.16 1.163-.483L31.517 2.811A1.647 1.647 0 0 0 29.188.482L.481 29.189A1.646 1.646 0 0 0 1.644 32z"/></symbol><symbol id="icon-facebook" viewBox="0 0 19 32"><path d="M18.558.007 14.408 0C9.746 0 6.733 3.091 6.733 7.875v3.631H2.561a.652.652 0 0 0-.652.653v5.261c0 .361.292.652.652.652h4.172v13.275c0 .361.292.653.652.653h5.444a.652.652 0 0 0 .652-.653V18.072h4.878a.651.651 0 0 0 .652-.652l.002-5.261a.652.652 0 0 0-.653-.652h-4.88V8.429c0-1.479.353-2.231 2.28-2.231l2.795-.001c.36 0 .652-.292.652-.652V.66a.652.652 0 0 0-.651-.652z"/></symbol><symbol id="icon-star" viewBox="0 0 34 32"><path stroke-width="1.684" d="m17.643 1.822 2.558 7.872a2.526 2.526 0 0 0 2.403 1.746h8.277c.816 0 1.155 1.044.495 1.523l-6.696 4.865a2.528 2.528 0 0 0-.918 2.825l2.558 7.872c.252.776-.636 1.421-1.296.941l-6.696-4.865a2.528 2.528 0 0 0-2.97 0l-6.696 4.865c-.66.48-1.548-.166-1.296-.941l2.558-7.872a2.527 2.527 0 0 0-.918-2.825L2.31 12.963c-.66-.479-.321-1.523.495-1.523h8.277a2.528 2.528 0 0 0 2.403-1.746l2.558-7.872c.252-.776 1.35-.776 1.602 0z"/></symbol><symbol id="icon-instagram" viewBox="0 0 34 32"><path d="M17.214 32h-.319c-2.508.006-4.826-.058-7.08-.195-2.066-.126-3.953-.84-5.455-2.065-1.45-1.182-2.44-2.781-2.942-4.75-.438-1.715-.461-3.398-.483-5.026a343.853 343.853 0 0 1-.036-3.96c.003-1.414.02-2.798.036-3.966.022-1.628.045-3.311.483-5.026.503-1.97 1.493-3.568 2.942-4.75C5.863 1.037 7.749.323 9.816.197 12.07.06 14.388-.004 16.902.002c2.509-.005 4.826.058 7.08.195 2.066.126 3.953.84 5.455 2.065 1.45 1.182 2.44 2.781 2.943 4.75.438 1.715.461 3.398.483 5.026.016 1.168.033 2.553.036 3.96v.006c-.003 1.408-.02 2.792-.036 3.96-.022 1.628-.045 3.311-.483 5.026-.503 1.97-1.492 3.568-2.942 4.75-1.503 1.225-3.389 1.939-5.455 2.065-2.159.131-4.376.195-6.768.195zm-.319-2.5c2.468.006 4.733-.056 6.934-.19 1.562-.095 2.917-.602 4.027-1.507 1.026-.837 1.732-1.991 2.1-3.431.364-1.428.385-2.96.406-4.442.016-1.16.032-2.535.036-3.929a339.15 339.15 0 0 0-.036-3.929c-.02-1.482-.041-3.015-.406-4.443-.367-1.44-1.074-2.594-2.1-3.431-1.11-.905-2.465-1.412-4.027-1.507a108.807 108.807 0 0 0-6.928-.19c-2.467-.006-4.733.056-6.934.19-1.563.095-2.917.602-4.027 1.507-1.026.837-1.732 1.991-2.1 3.431-.364 1.428-.385 2.96-.406 4.443a339.706 339.706 0 0 0-.036 3.932c.003 1.389.02 2.765.036 3.926.02 1.482.041 3.015.406 4.442.367 1.44 1.074 2.594 2.1 3.431 1.11.905 2.465 1.412 4.027 1.507 2.201.134 4.467.197 6.928.191zm-.059-5.688c-4.308 0-7.813-3.505-7.813-7.813s3.505-7.813 7.813-7.813 7.813 3.505 7.813 7.813-3.505 7.813-7.813 7.813zm0-13.125c-2.929 0-5.313 2.383-5.313 5.313s2.383 5.313 5.313 5.313c2.93 0 5.313-2.383 5.313-5.313s-2.383-5.313-5.313-5.313zm8.688-5a1.874 1.874 0 1 0-.001 3.749 1.874 1.874 0 0 0 .001-3.749z"/></symbol><symbol id="icon-logo" viewBox="0 0 72 32"><path d="M42.45 15.997c0 .261-.008.521 0 .783.089 2.653-.739 5.043-2.069 7.296a32.692 32.692 0 0 0-1.256 2.314c-.317.649-.757 1.104-1.442 1.37-.382.148-.737.405-1.058.669-1.476 1.218-3.15 2.091-4.941 2.705-1.189.408-2.414.767-3.706.751-.385-.004-.771.114-1.157.115s-.772-.124-1.154-.108c-1.666.071-3.21-.441-4.742-.979-1.673-.586-3.15-1.513-4.539-2.617-1.961-1.558-3.358-3.52-4.385-5.765-.554-1.211-1.004-2.46-1.132-3.804-.021-.223-.095-.444-.161-.66-.466-1.507-.198-2.985.09-4.486.22-1.148.447-2.283.877-3.373 1.135-2.884 2.938-5.245 5.435-7.1C19.191 1.563 21.521.614 24.054.206c2.907-.468 5.744-.131 8.497.963 1.374.548 2.67 1.241 3.802 2.159 1.056.856 2.008 1.858 2.908 2.883.815.928 1.394 2.034 1.911 3.162.807 1.762 1.333 3.586 1.28 5.546-.012.362-.003.721-.003 1.08zm-1.115-3.57c-.081-.616-.131-1.329-.281-2.022-.429-1.992-1.583-3.548-3.121-4.818-.873-.722-1.825-1.349-2.763-1.988-.318-.216-.687-.415-1.058-.481-.954-.176-1.919-.34-2.886-.389-1.678-.085-3.186-.518-4.453-1.685-.933-.858-1.948-.941-2.917-.186-1.099.855-2.349 1.357-3.624 1.854-.934.364-1.833.823-2.731 1.276-.75.379-1.187.971-1.177 1.867.006.503-.225.923-.69 1.201-.388.234-.762.492-1.117.773-.993.781-1.767 1.661-1.934 3.027-.132 1.08-.459 2.148-1.2 3.038a2.032 2.032 0 0 0-.442 1.069c-.068.807-.04 1.625-.02 2.437.006.217.1.451.211.642.256.452.534.891.835 1.315.727 1.01 1.359 2.046 1.505 3.329.141 1.244.742 2.257 1.759 3.03 1.473 1.121 2.892 2.311 4.387 3.402.803.588 1.663 1.102 2.723 1.221s2.098.408 3.048.941c.199.107.418.174.643.197 1.34.144 2.581-.187 3.758-.814.369-.197.749-.375 1.131-.546.92-.412 1.94-.682 2.741-1.255.891-.639 1.845-.923 2.868-1.101.442-.077.803-.259 1.091-.588.344-.39.661-.802 1.019-1.179.37-.389.637-.802.702-1.356.099-.849.463-1.599.924-2.319.781-1.217 1.225-2.562 1.456-3.992.061-.375.095-.692-.091-1.023-.538-.953-.318-2.035-.488-3.049-.086-.548.112-1.148.195-1.832l-.002.001zm-6.47-9.518c-.227-.251-.299-.364-.402-.434-.186-.128-.388-.233-.585-.344-1.687-.95-3.535-1.412-5.423-1.743-.379-.067-.778-.037-1.165-.022-.101.004-.221.102-.285.19-.029.04.037.18.092.248.42.5.968.878 1.585 1.092 1.066.383 2.186.594 3.319.623.48.013.958.104 1.436.169.407.058.814.127 1.428.223zM20.532 30.284c-1.132-.925-2.125-1.752-3.135-2.556a114.272 114.272 0 0 0-2.545-1.951c-.096-.072-.247-.07-.458-.124 1.03 1.728 4.469 4.353 6.138 4.632zM12.903 8.699c.683-.521 1.315-1.07 2.008-1.524.972-.633 1.344-1.421 1.115-2.773-.69.564-1.182 1.244-1.714 1.861-.562.651-.979 1.426-1.448 2.155-.036.059.022.175.039.281zm23.03 19.722c-.637-.044-1.279.069-1.678.412-.758.652-1.661.98-2.578 1.306-.482.171-.936.422-1.39.661-.063.033-.074.209-.061.313.004.035.174.092.244.069.824-.281 1.676-.507 2.456-.883.957-.459 1.856-1.04 2.772-1.579.096-.054.147-.181.236-.299zm-24.337-9.039c-.183.54-.147.838-.032 1.156.319.883.513 1.814 1.089 2.585.213.286.257.925.651.787.347-.12-.059-.627-.083-.968-.091-1.304-.777-2.355-1.625-3.561zm6.179-16.24.086.129c.476-.176.956-.343 1.428-.532 1.024-.41 2.045-.829 3.062-1.254a2.48 2.48 0 0 0 .568-.366c.049-.04.04-.175.025-.258-.008-.037-.105-.078-.161-.08a.997.997 0 0 0-.281.047c-1.383.393-2.688.974-3.936 1.68-.292.165-.529.422-.791.636zm24.296 14.005c.084-.097.149-.138.154-.183.135-1.421-.016-2.829-.21-4.233-.01-.071-.108-.172-.174-.18-.073-.01-.188.051-.233.117a.757.757 0 0 0-.133.352 13.522 13.522 0 0 0 .227 3.46c.044.23.235.432.369.668zm-30.809-3.92c.54-.206.621-.578.678-.915.141-.82.494-1.61.377-2.477-.564 1.035-1.065 2.083-1.055 3.392zm13.066 18.007c-1.21-.535-1.538-.591-2.616-.441.457.173.868.448 1.281.452.431.006.898.534 1.335-.011z"/><path d="M26.823 20.593c-.827-.015-1.396-.361-1.817-1.03-.392-.624-1.044-.947-1.642-1.332-.753-.484-1.366-1.03-1.54-2.012-.12-.665.02-1.243.29-1.769.227-.439.632-.847 1.057-1.108.461-.283.844-.55 1.056-1.073.241-.602.848-.638 1.386-.746.506-.102 1.021-.167 1.521-.295.683-.174 1.303-.12 1.802.411.386.412.836.708 1.338.958.522.26.695.564.531 1.107-.111.369-.004.62.134.914.15.321.305.647.408.986.344 1.128-.052 2.077-1.111 2.58-.656.311-1.159.726-1.322 1.456a.682.682 0 0 1-.509.537c-.524.153-1.055.28-1.583.417zm3.474-4.729c.017-1.987-1.49-3.576-3.45-3.579-1.759 0-3.528 1.189-3.596 3.469-.055 1.824 1.465 3.524 3.447 3.53 2.414.012 3.552-1.663 3.599-3.42zm-7.066 1.9c0-.255.024-.385-.004-.503-.26-1.079-.429-2.148.161-3.188.043-.075-.055-.229-.088-.346-.116.037-.255.045-.343.117-.974.799-1.409 2.718.274 3.92zm3.618-5.977c.408.149.64.255.884.321.898.237 1.664.664 2.197 1.451.105.155.241.385.442.209.107-.094.142-.382.08-.526-.083-.191-.272-.43-.454-.468-.493-.103-.763-.46-1.085-.771-.541-.519-1.144-.682-2.065-.215zm-.055 7.822-.012-.075c-.259 0-.52-.022-.774.009-.131.016-.25.127-.374.195.113.1.211.257.341.29.696.175 1.397.213 2.083-.055.117-.046.248-.106.321-.201.065-.08.086-.223.073-.331-.005-.04-.168-.101-.248-.088-.471.074-.94.167-1.409.254l-.002.001zm3.558-2.038c.482-.089.697-.361.725-.779a7.158 7.158 0 0 0-.015-1.056c-.008-.093-.137-.175-.21-.263-.107.101-.325.238-.305.299.196.609-.213 1.155-.194 1.797v.001zM34.761 20.323c-.028.014-.139.107-.26.12-.11.013-.271-.024-.339-.101a17.095 17.095 0 0 1-.982-1.199c-.08-.109-.113-.401-.067-.426.151-.083.445-.17.511-.098.388.427.729.897 1.079 1.357.034.046.024.125.059.346zM18.351 23.668c.179.014.533.025.878.084.086.015.201.183.201.283s-.099.274-.185.295c-.671.166-1.338.207-1.932-.241a.305.305 0 0 1-.095-.246c.013-.067.117-.16.187-.165.257-.022.516-.01.946-.01zM39.372 9.562l.254.139c-.072.129-.116.336-.221.373a10.45 10.45 0 0 1-1.483.423c-.145.028-.356-.114-.489-.231-.154-.136-.062-.431.132-.461.571-.088 1.147-.155 1.807-.242zM22.297 26.541c.268.125.493.16.602.294.3.372.575.764.822 1.174.12.195.01.406-.192.462-.111.031-.313-.06-.395-.16a12.819 12.819 0 0 1-.909-1.238c-.064-.102.035-.308.071-.532zM32.825 11.018c.017-.114 0-.244.053-.294.072-.066.227-.12.302-.085.102.049.167.182.237.286.194.291.387.584.572.883.083.134.194.276.201.42a.563.563 0 0 1-.174.398c-.056.051-.286.018-.343-.053-.371-.471-.816-.913-.849-1.554zM33.98 6.01c-.08.481-.112.836-.206 1.175a.975.975 0 0 1-.321.465c-.106.086-.292.073-.442.105-.012-.14-.056-.286-.031-.419.078-.41.183-.815.277-1.222.007-.032.005-.065.014-.096.074-.245.234-.432.49-.331.129.051.189.276.219.323zM27.054 9.141c.226.028.518.043.796.111.095.023.236.194.219.268-.029.132-.139.306-.255.345a.974.974 0 0 1-.566.003c-.321-.102-.621-.136-.941-.002-.21.088-.408-.004-.464-.214-.075-.281.136-.417.374-.456.253-.042.515-.035.837-.054zM32.064 22.97c-.091.398-.161.748-.259 1.089-.019.067-.161.157-.22.142-.107-.026-.257-.11-.279-.198a1.307 1.307 0 0 1-.016-.577c.076-.35.15-.682.008-1.039-.067-.171-.048-.444.212-.444.14 0 .342.173.405.316.102.229.109.499.149.71zM28.111 22.868c-.052.093-.078.204-.146.251-.423.291-.847.584-1.292.838-.114.065-.313.025-.458-.018-.212-.063-.257-.342-.08-.455.487-.312.977-.621 1.478-.908.08-.046.241.004.345.055.07.035.1.149.154.237zM22.723 4.155c.069.04.198.075.215.139.168.618.33 1.238.463 1.864.037.174-.193.27-.347.166-.486-.327-.788-1.536-.505-2.042.029-.05.101-.075.174-.128zM28.724 5.911c-.146-.097-.304-.147-.325-.231-.023-.091.053-.247.135-.321a13.57 13.57 0 0 1 1.117-.897c.131-.092.402-.157.502-.085.237.166.112.401-.053.573-.222.231-.442.475-.697.662-.196.141-.447.201-.678.299zM19.489 9.177l-.355.335c-.101-.11-.251-.201-.294-.331a23.988 23.988 0 0 1-.448-1.555c-.018-.072.04-.219.1-.243.098-.04.26-.056.335 0 .147.109.316.254.364.418.127.425.193.87.298 1.377zM15.602 17.757c-.326.596-.573 1.207-1.18 1.533-.102.055-.328-.015-.437-.102-.186-.147 0-.27.09-.395.285-.392.548-.8.85-1.177.078-.097.276-.144.411-.131.092.008.166.164.266.272zM19.282 17.807c.17.098.293.128.316.192.038.106.057.272 0 .346-.093.117-.253.184-.39.263-.356.204-.708.42-1.078.594a.49.49 0 0 1-.418-.035c-.207-.147-.134-.383.032-.487.509-.318 1.043-.596 1.538-.873zM37.698 15.106c-.131.295-.315.74-.533 1.167-.034.066-.245.102-.335.063-.083-.037-.174-.205-.157-.295.088-.475.184-.952.332-1.411.045-.14.248-.267.405-.314.058-.017.209.201.281.334.041.075.007.191.007.457zM15.5 11.562c.576.517.508 1.218.572 1.866.012.12-.138.292-.258.379-.063.046-.317-.028-.323-.07a36.078 36.078 0 0 1-.216-1.971c-.004-.056.131-.125.226-.205zM28.97 27.56c.097.026.192.057.285.093.346.16.695.317 1.032.493.161.083.321.188.437.321.133.154-.019.451-.205.41-.628-.136-1.242-.325-1.712-.794-.07-.069-.068-.243-.045-.358.013-.065.135-.11.208-.165zM21.324 11.751c.033.104.147.265.107.366a23.915 23.915 0 0 1-.704 1.578c-.031.064-.161.12-.238.11-.067-.008-.161-.103-.178-.175-.132-.579.284-1.615.747-1.876.048-.027.124-.004.266-.004zM39.288 20.539c-.072-.046-.223-.102-.301-.209-.031-.043.07-.239.157-.301.387-.281.781-.549 1.192-.789.111-.065.341-.069.423.003.075.067.086.321.018.414-.345.48-.779.846-1.49.883zM36.901 24.67c-.298-.031-.428-.034-.552-.062-.053-.012-.131-.074-.132-.114a.425.425 0 0 1 .068-.259.49.49 0 0 1 .241-.15c.46-.138.919-.276 1.386-.388.101-.024.314.043.328.1.031.137-.006.303-.06.441-.029.073-.142.134-.23.16-.399.11-.8.207-1.049.272zM23.064 21.355c-.033.14-.086.45-.19.742-.026.073-.227.142-.319.116s-.201-.178-.198-.274c.01-.541.037-1.083.092-1.622.012-.118.161-.221.247-.331.103.109.27.205.296.329.058.279.046.573.073 1.039zM44.599 4.422c0-1.146.278-2.016.833-2.608.561-.598 1.28-.898 2.157-.898s1.574.258 2.091.775c.524.516.785 1.342.785 2.475s-.277 1.99-.832 2.57c-.555.579-1.296.869-2.223.869-.801 0-1.457-.23-1.968-.69-.265-.239-.473-.57-.625-.992-.145-.428-.218-.929-.218-1.502zm2.961-3.41c-.637 0-1.16.283-1.57.85-.404.567-.606 1.398-.606 2.494s.192 1.896.577 2.4c.385.504.896.756 1.533.756.643 0 1.167-.283 1.571-.85.41-.573.615-1.401.615-2.485 0-1.09-.195-1.89-.587-2.4a1.827 1.827 0 0 0-1.533-.765zM52.101 7.569h-.785V.955h.785v3.042h3.075V.955h.785v6.614h-.785V4.092h-3.075v3.477zM59.997 7.569h-.123l.823-6.614h.312l1.987 6.113L64.973.955h.312l.823 6.614h-.785l-.653-5.291-1.713 5.291h-.596L60.63 2.344l-.634 5.225zM71.35.955c.12.12.18.274.18.463 0 .157-.035.318-.104.482l-1.694 3.43v2.239h-.785V5.538L67.055.956h.804l1.807 4.261 1.646-3.316c.069-.157.104-.321.104-.491s-.047-.302-.142-.397l.076-.057zM1.334 9.306c.489-.022.967-.033 1.434-.033.478 0 .978.05 1.5.15a5.34 5.34 0 0 1 1.567.566 4.08 4.08 0 0 1 1.317 1.049c.367.422.661.982.884 1.682s.333 1.548.333 2.547c0 .999-.167 1.898-.5 2.697-.322.788-.767 1.393-1.334 1.815-1.1.821-2.429 1.232-3.985 1.232-.545 0-1.117-.022-1.717-.067h-.834V9.306h1.334zm.05 11.505c.233.022.528.033.884.033s.622-.006.8-.017c.178-.011.422-.055.734-.133.311-.089.6-.205.867-.35s.545-.355.834-.633c.3-.289.556-.627.767-1.016.478-.91.717-2.098.717-3.563 0-1.043-.128-1.942-.383-2.697-.256-.766-.55-1.332-.884-1.698a3.443 3.443 0 0 0-1.184-.866c-.467-.222-.839-.35-1.117-.383s-.6-.05-.967-.05-.722.017-1.067.05v11.321zM44.869 20.944h-.216V9.29h.567l6.936 10.772V9.29h.216v11.654h-1.217l-6.286-9.656v9.656zM62.638 9.29h.217v6.66c0 1.743-.344 3.025-1.034 3.846-.689.81-1.589 1.215-2.701 1.215-.7 0-1.295-.061-1.784-.183a3.843 3.843 0 0 1-1.384-.716c-.889-.688-1.333-2.076-1.333-4.162V9.29h1.384v6.643c0 2.02.306 3.369.917 4.046.311.333.634.561.967.683.345.122.756.183 1.234.183 1.067 0 1.917-.388 2.551-1.165.645-.788.967-2.037.967-3.746V9.291zM68.542 20.944h-1.384V9.456h-2.884V9.29h7.169v.166h-2.901v11.488z"/></symbol><symbol id="icon-mark" viewBox="0 0 23 32"><path d="M11.733 1.193c6.47 0 11.733 5.264 11.733 11.733 0 2.56-.809 4.993-2.341 7.034l-8.669 11.676c-.022.028-.055.039-.079.064-.433.464-1.058.347-1.367-.064-2.496-3.331-7.072-9.552-8.832-11.899l-.001-.003-.011-.014a11.648 11.648 0 0 1-2.167-6.794c0-6.47 5.264-11.733 11.733-11.733zm0 18.063c3.483 0 6.33-2.847 6.33-6.33s-2.847-6.33-6.33-6.33-6.33 2.847-6.33 6.33 2.847 6.33 6.33 6.33z"/></symbol><symbol id="icon-menu" viewBox="0 0 60 32"><path d="M2 0h56a2 2 0 1 1 0 4H2a2 2 0 1 1 0-4zM2 14h56a2 2 0 1 1 0 4H2a2 2 0 1 1 0-4zM2 28h56a2 2 0 1 1 0 4H2a2 2 0 1 1 0-4z"/></symbol><symbol id="icon-people" viewBox="0 0 35 32"><path d="M11.976.729c-3.63 0-6.587 2.957-6.587 6.587s2.957 6.587 6.587 6.587 6.587-2.957 6.587-6.587S15.606.729 11.976.729zm0 12.07c-3.031 0-5.489-2.465-5.489-5.489s2.465-5.489 5.489-5.489c3.031 0 5.489 2.465 5.489 5.489S15 12.799 11.976 12.799zM25.467 3.463c-2.728 0-4.944 2.216-4.944 4.944s2.216 4.944 4.944 4.944c2.728 0 4.944-2.216 4.944-4.944s-2.216-4.944-4.944-4.944zm0 8.797c-2.122 0-3.846-1.724-3.846-3.846s1.724-3.846 3.846-3.846 3.846 1.724 3.846 3.846-1.724 3.846-3.846 3.846z"/><path d="M34.31 20.599c-.498-3.004-2.364-5.537-5.543-6.864 0 0-1.408 1.064-3.3 1.031-2.068-.04-3.3-1.031-3.3-1.031s-1.536.572-2.775 1.765c-1.145-1.017-3.078-1.846-3.078-1.846s-1.771 1.347-4.344 1.327c-2.701-.02-4.331-1.327-4.331-1.327s-5.84 2.007-7.072 8.817c0 0-1.32 3.61 1.738 9.005h19.351s1.374-2.391 1.616-3.846h9.625c2.364-3.583 1.414-7.032 1.414-7.032zm-13.336 9.779H2.983c-2.351-4.466-1.334-7.726-1.334-7.726a10.433 10.433 0 0 1 5.907-7.759c2.694 1.583 6.15 1.583 8.844 0a10.432 10.432 0 0 1 5.907 7.759c-.007 0 .97 4.014-1.334 7.726zm11.282-3.845h-8.763c.337-1.94-.108-4.061-.108-4.061a11.502 11.502 0 0 0-3.186-6.23 7.87 7.87 0 0 1 1.879-1.266 6.889 6.889 0 0 0 6.769 0 7.849 7.849 0 0 1 4.378 5.806s.802 2.721-.97 5.752z"/></symbol><symbol id="icon-phone" viewBox="0 0 32 32"><path d="M29.43 21.003c-1.959 0-3.882-.306-5.705-.909-.893-.305-1.991-.025-2.536.535l-3.598 2.716c-4.172-2.227-6.743-4.797-8.939-8.938l2.636-3.504a2.584 2.584 0 0 0 .636-2.62 18.192 18.192 0 0 1-.912-5.715A2.57 2.57 0 0 0 8.445 0H2.569A2.57 2.57 0 0 0 .001 2.568c0 16.228 13.202 29.43 29.43 29.43a2.57 2.57 0 0 0 2.568-2.568v-5.86a2.57 2.57 0 0 0-2.568-2.567z"/></symbol><symbol id="icon-twitter" viewBox="0 0 41 32"><path d="M40.421 3.788a17.658 17.658 0 0 1-4.775 1.275c1.718-.999 3.029-2.57 3.645-4.463a16.82 16.82 0 0 1-5.255 1.954 8.408 8.408 0 0 0-6.053-2.555c-4.588 0-8.281 3.628-8.281 8.076 0 .64.056 1.255.192 1.841-6.889-.327-12.985-3.545-17.08-8.446A7.97 7.97 0 0 0 1.68 5.551c0 2.796 1.478 5.275 3.681 6.71a8.36 8.36 0 0 1-3.744-.994v.089c0 3.924 2.872 7.183 6.639 7.934-.675.18-1.41.266-2.173.266-.531 0-1.066-.03-1.569-.138 1.074 3.197 4.12 5.548 7.743 5.625a16.93 16.93 0 0 1-10.275 3.444c-.68 0-1.331-.03-1.983-.111 3.671 2.307 8.021 3.623 12.712 3.623 15.249 0 23.586-12.308 23.586-22.976 0-.357-.013-.702-.03-1.044a16.29 16.29 0 0 0 4.153-4.192z"/></symbol></defs></svg>